<?xml version="1.0" standalone="no"?>
<!DOCTYPE svg PUBLIC "-//W3C//DTD SVG 20010904//EN"
 "http://www.w3.org/TR/2001/REC-SVG-20010904/DTD/svg10.dtd">
<svg version="1.0" xmlns="http://www.w3.org/2000/svg"
 width="260.000000pt" height="260.000000pt" viewBox="0 0 260.000000 260.000000"
 preserveAspectRatio="xMidYMid meet">
<metadata>
Created by potrace 1.14, written by Peter Selinger 2001-2017
</metadata>
<g transform="translate(0.000000,260.000000) scale(0.100000,-0.100000)"
fill="#000000" stroke="none">
<path d="M145 2535 c-48 -22 -73 -49 -84 -92 -7 -25 -11 -205 -11 -502 0 -431
2 -467 19 -506 22 -49 62 -81 117 -92 21 -4 244 -8 494 -7 514 1 507 0 558 77
l27 41 0 491 0 491 -25 37 c-14 21 -43 46 -66 57 -39 19 -61 20 -520 20 -390
-1 -485 -3 -509 -15z"/>
<path d="M1435 2530 c-22 -11 -51 -36 -65 -57 l-25 -37 0 -480 c0 -265 3 -492
7 -506 10 -35 58 -86 93 -101 43 -16 957 -16 1008 0 42 14 81 56 96 103 6 21
9 202 8 509 l-2 476 -28 41 c-51 73 -46 72 -580 72 -451 0 -474 -1 -512 -20z"/>
<path d="M188 1258 c-53 -10 -87 -34 -115 -84 -22 -39 -22 -43 -23 -511 0
-513 0 -518 55 -569 47 -43 74 -45 576 -42 l475 3 37 25 c74 50 73 42 73 583
l-1 482 -24 38 c-13 21 -41 47 -65 59 -40 20 -53 21 -493 22 -248 1 -471 -2
-495 -6z"/>
<path d="M1488 1258 c-57 -8 -91 -30 -120 -77 l-23 -36 -1 -484 c0 -475 0
-486 21 -525 14 -26 36 -48 65 -63 l43 -23 474 0 c517 0 520 0 570 58 13 15
27 41 32 57 4 17 8 239 9 495 0 359 -3 472 -13 496 -19 47 -54 82 -93 95 -39
13 -882 19 -964 7z"/>
</g>
</svg>
