<svg width="129" height="36" viewBox="0 0 129 36" fill="none" xmlns="http://www.w3.org/2000/svg">
<g id="Website Header Logo" clip-path="url(#clip0_122_1704)">
<path id="Vector" d="M15.033 18.5005H2.78995C2.18283 18.5005 1.60056 18.7416 1.17115 19.1708C0.741732 19.6 0.500326 20.1821 0.5 20.7892L0.5 33.0335C0.5 33.6408 0.741262 34.2232 1.17071 34.6527C1.60016 35.0821 2.18262 35.3234 2.78995 35.3234H15.033C15.6403 35.3234 16.2228 35.0821 16.6522 34.6527C17.0817 34.2232 17.3229 33.6408 17.3229 33.0335V20.7892C17.3226 20.1821 17.0812 19.6 16.6518 19.1708C16.2224 18.7416 15.6401 18.5005 15.033 18.5005Z" fill="url(#paint0_linear_122_1704)"/>
<path id="Vector_2" d="M13.0249 29.6479C12.1492 29.8938 11.3806 29.6479 10.7361 29.0096C10.6648 28.9382 10.6131 28.8534 10.5418 28.7759C10.5189 28.7442 10.4868 28.7202 10.4499 28.7072C10.4129 28.6943 10.3729 28.6929 10.3352 28.7033C10.2983 28.7123 10.2654 28.733 10.2412 28.7622C10.217 28.7915 10.203 28.8278 10.2012 28.8657C10.1976 28.9124 10.2093 28.9589 10.2344 28.9985C10.6277 29.5516 11.2202 29.9307 11.8873 30.0562C11.9414 30.0672 11.9574 30.0844 11.9574 30.1373C11.9574 30.4038 11.9574 30.6703 11.9574 30.9367C11.9623 30.985 11.9522 31.0335 11.9286 31.0759C11.9049 31.1182 11.8688 31.1522 11.8252 31.1733C11.7815 31.1944 11.7324 31.2015 11.6846 31.1937C11.6367 31.186 11.5924 31.1636 11.5577 31.1298C11.1998 30.8445 10.8431 30.5567 10.4791 30.2775C10.0697 29.9593 9.56611 29.7862 9.04757 29.7856C8.41297 29.7856 7.77961 29.7856 7.14501 29.7856H7.06753C7.19052 29.6823 7.3135 29.59 7.41804 29.4806C7.72056 29.1639 7.90733 28.7544 7.9481 28.3184C8.00959 27.8351 7.8743 27.3874 7.71812 26.9398C7.62508 26.6853 7.55109 26.4242 7.49675 26.1588C7.45018 25.8602 7.50888 25.5548 7.6628 25.2947C7.81671 25.0347 8.05627 24.8363 8.34041 24.7334C8.36624 24.7248 8.39207 24.7174 8.41666 24.7076C8.46205 24.6895 8.49873 24.6546 8.51915 24.6102C8.53956 24.5658 8.54214 24.5153 8.52636 24.469C8.51057 24.4228 8.47763 24.3843 8.43433 24.3617C8.39102 24.339 8.34068 24.3339 8.29368 24.3473C7.99262 24.4433 7.72379 24.6203 7.51662 24.8589C7.30946 25.0975 7.17196 25.3885 7.11919 25.7001C7.08024 26.0481 7.12233 26.4004 7.24217 26.7294C7.33687 27.0172 7.45001 27.2989 7.52626 27.5903C7.59423 27.8295 7.61019 28.0805 7.57306 28.3263C7.53594 28.5722 7.4466 28.8073 7.31104 29.0157C7.19666 29.1954 7.04287 29.3467 6.86132 29.4582C6.67978 29.5696 6.47524 29.6383 6.26322 29.6589C5.4503 29.7684 4.1725 29.3306 3.65105 28.236C3.40778 27.7244 3.34502 27.1454 3.47299 26.5935C3.60097 26.0417 3.91213 25.5494 4.35575 25.1971C4.59925 24.9988 4.87285 24.8406 5.16621 24.7285C5.16878 24.7436 5.16878 24.759 5.16621 24.774C5.05222 25.1313 5.00593 25.5066 5.0297 25.8809C5.05035 26.2885 5.19639 26.6798 5.44784 27.0012C5.47054 27.0327 5.50277 27.056 5.53976 27.0678C5.57674 27.0795 5.61653 27.079 5.65322 27.0664C5.68922 27.0593 5.72178 27.0402 5.74564 27.0124C5.76951 26.9845 5.78331 26.9494 5.78481 26.9127C5.78759 26.86 5.77336 26.8079 5.74423 26.7639C5.42816 26.3519 5.37528 25.8796 5.42693 25.3852C5.48162 24.7965 5.73288 24.2433 6.14024 23.8147C6.53434 23.4085 7.01662 23.0984 7.54977 22.9084C8.08291 22.7183 8.65263 22.6535 9.21483 22.719C9.692 22.7768 10.0892 22.9797 10.3364 23.415C10.4205 23.5646 10.4558 23.7367 10.4375 23.9073C10.4192 24.0779 10.3482 24.2386 10.2344 24.3669C10.146 24.4586 10.0464 24.5388 9.93797 24.6055C9.82974 24.6781 9.78424 24.7826 9.83958 24.8798C9.8534 24.9035 9.87194 24.9241 9.89405 24.9403C9.91616 24.9566 9.94136 24.9681 9.96811 24.9742C9.99486 24.9803 10.0226 24.9809 10.0495 24.9759C10.0765 24.9708 10.1022 24.9603 10.1249 24.945C10.4003 24.8004 10.6174 24.5655 10.7398 24.2796C10.8112 24.3423 10.8751 24.4026 10.9489 24.4641C11.1223 24.5981 11.3292 24.6819 11.5469 24.7062C11.7647 24.7305 11.985 24.6944 12.1836 24.6018C12.2281 24.5826 12.2632 24.5467 12.2816 24.5019C12.3 24.4571 12.3001 24.4069 12.282 24.362C12.265 24.3196 12.2333 24.2847 12.1926 24.2637C12.152 24.2427 12.1051 24.237 12.0607 24.2476C11.9844 24.2685 11.9106 24.3018 11.8319 24.3165C11.6139 24.3549 11.3894 24.3092 11.2036 24.1887C11.0179 24.0683 10.8847 23.8819 10.8308 23.6672C10.7536 23.35 10.5887 23.0611 10.3549 22.8333C10.2762 22.7632 10.1913 22.6993 10.1015 22.6255C10.612 22.6955 11.1093 22.8405 11.5773 23.0559C12.3364 23.3883 12.9809 23.9366 13.4307 24.6326C13.6252 24.92 13.7595 25.2438 13.8255 25.5845C13.8839 25.8894 13.8666 26.204 13.7751 26.5007C13.6053 27.0135 13.1835 27.246 12.6608 27.1156C12.267 26.9982 11.8992 26.8066 11.5773 26.5511C11.3307 26.3518 11.0554 26.1909 10.7607 26.0739C10.5068 25.9757 10.2242 25.9822 9.97515 26.0923C9.72608 26.2023 9.53089 26.4067 9.43251 26.6606C9.35162 26.8774 9.34858 27.1157 9.4239 27.3345C9.43363 27.3738 9.4553 27.4091 9.48591 27.4355C9.51653 27.4619 9.55459 27.4782 9.59484 27.4821C9.63236 27.4877 9.67068 27.4806 9.70367 27.4619C9.73666 27.4431 9.76243 27.4139 9.77686 27.3788C9.79774 27.329 9.80163 27.2736 9.78793 27.2214C9.7528 27.1269 9.74144 27.0252 9.75485 26.9253C9.76826 26.8254 9.80603 26.7303 9.86483 26.6484C9.92363 26.5665 10.0017 26.5004 10.092 26.4557C10.1824 26.4111 10.2824 26.3894 10.3832 26.3925C10.5269 26.3974 10.6673 26.4366 10.7927 26.5068C11.0139 26.634 11.2282 26.7728 11.4347 26.9225C11.7663 27.1749 12.1415 27.3641 12.5415 27.4809C12.8423 27.5732 13.1662 27.5558 13.4553 27.4317C13.7415 27.2936 13.9679 27.0563 14.0924 26.7639C14.1022 26.7393 14.1133 26.7159 14.1292 26.6803C14.2304 26.848 14.307 27.0294 14.3568 27.2189C14.631 28.2508 14.0382 29.3711 13.0249 29.6479Z" fill="#111920"/>
<path id="Vector_3" d="M32.9197 18.5005H20.6754C20.0684 18.5005 19.4863 18.7416 19.0571 19.1708C18.6279 19.6001 18.3867 20.1822 18.3867 20.7892V33.0335C18.3867 33.6406 18.6278 34.2228 19.057 34.6523C19.4862 35.0817 20.0683 35.3231 20.6754 35.3234H32.9197C33.5268 35.3231 34.1089 35.0817 34.5381 34.6523C34.9673 34.2228 35.2084 33.6406 35.2084 33.0335V20.7892C35.2084 20.1822 34.9673 19.6001 34.5381 19.1708C34.1088 18.7416 33.5267 18.5005 32.9197 18.5005Z" fill="url(#paint1_linear_122_1704)"/>
<path id="Vector_4" d="M27.0497 22.8038H27.5835C27.611 22.8109 27.6389 22.8163 27.6671 22.8198C28.0817 22.8452 28.4849 22.9664 28.8447 23.1741C29.2045 23.3817 29.5112 23.6701 29.7406 24.0165C30.3555 24.8982 30.4367 25.8612 30.1243 26.8672C29.944 27.4393 29.6328 27.9614 29.2154 28.3922C28.8772 28.7476 28.7456 29.1781 28.7051 29.6491C28.6626 30.2277 28.6663 30.8088 28.7161 31.3869C28.7161 31.4631 28.7235 31.5394 28.7272 31.6168H27.1407V31.5098C27.1407 30.9417 27.1407 30.3735 27.1407 29.8041C27.1456 29.6315 27.1153 29.4598 27.0515 29.2994C26.9877 29.139 26.8919 28.9933 26.7699 28.8713C26.6478 28.7492 26.5021 28.6534 26.3417 28.5896C26.1813 28.5259 26.0096 28.4955 25.8371 28.5004H23.5102L23.5828 28.3897C23.7488 28.1352 23.7218 28.0011 23.4684 27.8314C23.3922 27.781 23.3098 27.7392 23.2335 27.6875C23.1635 27.6431 23.0972 27.5929 23.0355 27.5375C23.007 27.513 22.9836 27.4831 22.9669 27.4494C22.9501 27.4158 22.9403 27.3791 22.938 27.3416C22.9357 27.3041 22.941 27.2665 22.9535 27.2311C22.966 27.1956 22.9856 27.1631 23.0109 27.1353C23.0478 27.0934 23.089 27.0554 23.1339 27.0222C23.2638 26.9265 23.3871 26.8221 23.5029 26.7098C23.7488 26.4318 23.8325 26.085 23.8718 25.7259C23.9026 25.4234 23.9149 25.1196 23.9431 24.8171C23.9628 24.5115 24.0618 24.2163 24.2302 23.9605C24.3986 23.7048 24.6307 23.4973 24.9036 23.3585C25.4398 23.0609 26.0277 22.9379 26.6254 22.8555C26.7595 22.8358 26.9046 22.8211 27.0497 22.8038Z" fill="#111920"/>
<path id="Vector_5" d="M25.5887 31.6217C25.5887 31.4385 25.5961 31.2601 25.5887 31.083C25.5809 30.8017 25.5278 30.5235 25.4313 30.2591C25.3083 29.9405 25.0697 29.8138 24.7291 29.8594C24.5225 29.8902 24.3143 29.9095 24.1056 29.9172C24.0334 29.9191 23.9616 29.9068 23.8943 29.8808C23.8269 29.8548 23.7654 29.8158 23.7132 29.7659C23.6655 29.7261 23.6306 29.6732 23.6126 29.6138C23.5947 29.5543 23.5946 29.4909 23.6124 29.4314C23.6345 29.3453 23.6677 29.2617 23.696 29.178C23.72 29.1281 23.7325 29.0735 23.7325 29.0181C23.7325 28.9628 23.72 28.9082 23.696 28.8583C23.7268 28.8583 23.7489 28.8583 23.771 28.8583C24.4647 28.8583 25.1595 28.8583 25.8544 28.8583C26.0642 28.855 26.2687 28.9245 26.4331 29.055C26.5975 29.1855 26.7115 29.3689 26.7559 29.574C26.7706 29.6415 26.7781 29.7104 26.778 29.7794C26.778 30.3755 26.778 30.9724 26.778 31.5701C26.778 31.586 26.778 31.6033 26.778 31.6254L25.5887 31.6217Z" fill="#111920"/>
<path id="Vector_6" d="M15.033 0.676514H2.78995C2.18262 0.676514 1.60016 0.917776 1.17071 1.34723C0.741262 1.77668 0.5 2.35913 0.5 2.96647L0.5 15.2107C0.500326 15.8178 0.741732 16.4 1.17115 16.8292C1.60056 17.2583 2.18283 17.4994 2.78995 17.4994H15.033C15.6401 17.4994 16.2224 17.2583 16.6518 16.8292C17.0812 16.4 17.3226 15.8178 17.3229 15.2107V2.96647C17.3229 2.35913 17.0817 1.77668 16.6522 1.34723C16.2228 0.917776 15.6403 0.676514 15.033 0.676514Z" fill="url(#paint2_linear_122_1704)"/>
<path id="Vector_7" d="M12.7074 10.0946C12.7074 10.0811 12.7074 10.0663 12.7074 10.0516C12.7054 10.0098 12.7122 9.96807 12.7273 9.92904C12.7423 9.89001 12.7653 9.85451 12.7947 9.8248C12.8241 9.79509 12.8594 9.77181 12.8983 9.75643C12.9372 9.74105 12.9789 9.7339 13.0207 9.73543C13.0625 9.73697 13.1035 9.74716 13.1412 9.76535C13.1788 9.78355 13.2123 9.80935 13.2395 9.84114C13.2667 9.87293 13.287 9.91001 13.2991 9.95005C13.3113 9.99008 13.3149 10.0322 13.31 10.0737C13.31 10.7846 12.9939 11.4745 12.3999 12.0697C11.9242 12.5001 11.3085 12.7431 10.6671 12.7535H10.6486C10.6331 12.7549 10.6174 12.7549 10.6019 12.7535C10.5519 12.7566 10.5023 12.7423 10.4617 12.713C10.3839 12.6591 10.3263 12.5807 10.2981 12.4903C10.2899 12.457 10.2883 12.4223 10.2936 12.3883C10.2989 12.3543 10.3109 12.3217 10.3289 12.2923C10.3743 12.2279 10.4432 12.1838 10.5207 12.1694C10.5611 12.1604 10.6024 12.1562 10.6437 12.1571H10.6646C11.1983 12.1356 11.7045 11.9143 12.0827 11.5371C12.4609 11.1598 12.6834 10.6542 12.7061 10.1205C12.7061 10.1118 12.7074 10.1032 12.7074 10.0946Z" fill="#111920"/>
<path id="Vector_8" d="M11.597 10.0516C11.5946 10.0092 11.6012 9.96678 11.6162 9.92706C11.6312 9.88734 11.6544 9.85122 11.6843 9.82102C11.7142 9.79082 11.75 9.76722 11.7896 9.75174C11.8291 9.73626 11.8715 9.72924 11.9139 9.73114C11.9563 9.73304 11.9979 9.74382 12.0359 9.76277C12.0739 9.78173 12.1075 9.80844 12.1345 9.84119C12.1616 9.87394 12.1815 9.912 12.1929 9.9529C12.2043 9.9938 12.207 10.0366 12.2009 10.0787C12.1888 10.4894 12.0218 10.8804 11.7335 11.1732C11.4425 11.4588 11.0551 11.6251 10.6476 11.6393H10.6254C10.5854 11.6437 10.5448 11.64 10.5062 11.6282C10.4677 11.6165 10.4319 11.597 10.4011 11.571C10.3702 11.545 10.345 11.513 10.3269 11.477C10.3089 11.441 10.2983 11.4016 10.2959 11.3614C10.292 11.3235 10.2959 11.2852 10.3074 11.2488C10.3188 11.2125 10.3375 11.1788 10.3623 11.1499C10.3953 11.1142 10.4352 11.0857 10.4796 11.066C10.524 11.0463 10.572 11.036 10.6205 11.0355C11.1863 10.9998 11.5527 10.6309 11.597 10.0516Z" fill="#111920"/>
<path id="Vector_9" d="M9.92175 10.4451C9.79877 10.4796 9.67578 10.5103 9.5528 10.5472C9.52801 10.5588 9.50519 10.5741 9.48516 10.5927C9.5036 10.6136 9.5159 10.6419 9.53927 10.6554C9.69669 10.7489 9.8578 10.8387 10.0152 10.9321C10.1247 10.9961 10.1382 11.033 10.0767 11.1461C9.96749 11.3581 9.80764 11.5398 9.61134 11.6752C9.41504 11.8106 9.18836 11.8954 8.95141 11.9222C8.80998 11.9431 8.78784 11.9591 8.78784 12.1005V13.2209H5.8965C5.8965 13.1827 5.8965 13.1434 5.8965 13.1053C5.8965 12.7449 5.89035 12.3846 5.8965 12.023C5.90755 11.7298 5.82672 11.4404 5.66529 11.1953C5.48696 10.9248 5.29634 10.6616 5.11063 10.3984C4.55625 9.63212 4.27871 8.70021 4.32354 7.75548C4.32383 7.3582 4.39204 6.96389 4.52523 6.5896C4.65162 6.22941 4.86433 5.90567 5.14475 5.64669C5.42517 5.3877 5.76477 5.20136 6.13386 5.10396C6.89221 4.8663 7.70857 4.89143 8.45087 5.17529C9.46425 5.57498 10.0128 6.35224 10.1726 7.41605C10.1838 7.46279 10.1896 7.51065 10.1899 7.55871C10.1653 7.80467 10.2698 7.99653 10.3817 8.19699C10.6277 8.63973 10.8736 9.08739 11.111 9.53259C11.25 9.78594 11.1491 9.95935 10.865 9.96058C10.6953 9.96058 10.5256 9.96058 10.3571 9.96058C10.2563 9.96058 10.2022 9.99993 10.2046 10.102C10.2157 10.407 10.2157 10.3627 9.92175 10.4451Z" fill="#111920"/>
<path id="Vector_10" d="M14.4093 10.2102C14.3993 10.4083 14.3767 10.6054 14.3417 10.8006C14.1892 11.5631 13.8301 12.2087 13.2102 12.8323C12.5165 13.4929 11.5954 13.8619 10.6374 13.8629H10.6251C10.5802 13.8648 10.5354 13.8579 10.4932 13.8424C10.451 13.827 10.4123 13.8035 10.3792 13.7731C10.3516 13.7449 10.3299 13.7114 10.3156 13.6746C10.3012 13.6378 10.2944 13.5985 10.2955 13.5591C10.2967 13.5173 10.3064 13.4763 10.324 13.4384C10.3415 13.4005 10.3665 13.3665 10.3976 13.3386C10.4286 13.3106 10.465 13.2893 10.5046 13.2758C10.5441 13.2624 10.5859 13.2571 10.6276 13.2602H10.6743C11.3981 13.2494 12.0959 12.9887 12.6494 12.5223C13.0057 12.2329 13.2952 11.8698 13.4979 11.458C13.7006 11.0462 13.8119 10.5953 13.8239 10.1365C13.8233 10.1246 13.8233 10.1127 13.8239 10.1008C13.8227 10.0824 13.8227 10.0639 13.8239 10.0454C13.8223 10.0045 13.8289 9.96373 13.8436 9.92549C13.8582 9.88725 13.8804 9.8524 13.909 9.82305C13.9375 9.7937 13.9718 9.77048 14.0096 9.7548C14.0474 9.73911 14.088 9.7313 14.1289 9.73184C14.1696 9.73186 14.2098 9.74029 14.247 9.75658C14.2843 9.77288 14.3178 9.79669 14.3454 9.82654C14.3747 9.85991 14.3967 9.89901 14.41 9.94136C14.4234 9.98371 14.4277 10.0284 14.4229 10.0725C14.4155 10.118 14.4118 10.1635 14.4093 10.2102Z" fill="#111920"/>
<path id="Vector_11" d="M32.9197 0.676514H20.6754C20.0683 0.67684 19.4862 0.918246 19.057 1.34766C18.6278 1.77707 18.3867 2.35935 18.3867 2.96647V15.2107C18.3867 15.8177 18.6279 16.3999 19.0571 16.8291C19.4863 17.2583 20.0684 17.4994 20.6754 17.4994H32.9197C33.5267 17.4994 34.1088 17.2583 34.5381 16.8291C34.9673 16.3999 35.2084 15.8177 35.2084 15.2107V2.96647C35.2084 2.35935 34.9673 1.77707 34.5381 1.34766C34.1089 0.918246 33.5268 0.67684 32.9197 0.676514Z" fill="url(#paint3_linear_122_1704)"/>
<path id="Vector_12" d="M31.422 12.8826C31.3219 12.9719 31.2027 13.0371 31.0735 13.0733C30.9444 13.1095 30.8087 13.1158 30.6767 13.0917C29.929 12.9294 29.1886 12.7387 28.4446 12.5604C28.3277 12.5309 28.2199 12.4732 28.1305 12.3924C28.0411 12.3115 27.9728 12.21 27.9317 12.0968C27.6966 11.5523 27.5345 10.9791 27.4496 10.3922C27.35 9.7613 27.2996 9.12178 27.2246 8.48719C27.2144 8.42597 27.1895 8.36815 27.152 8.3187C27.1087 8.26807 27.055 8.22742 26.9945 8.19955C26.9339 8.17168 26.8681 8.15725 26.8015 8.15725C26.7349 8.15725 26.6691 8.17168 26.6086 8.19955C26.548 8.22742 26.4943 8.26807 26.451 8.3187C26.4362 8.33592 26.4215 8.35191 26.408 8.36912C26.3818 8.41725 26.3703 8.47196 26.3748 8.52654C26.3319 9.66155 26.1273 10.7846 25.7672 11.8619C25.7672 11.8815 25.7537 11.9 25.7475 11.9197C25.7031 12.0964 25.6087 12.2565 25.4756 12.381C25.3426 12.5056 25.1766 12.5892 24.9973 12.6219C24.3099 12.7732 23.6273 12.9515 22.9398 13.0978C22.8105 13.1224 22.6775 13.1183 22.55 13.0857C22.4225 13.0532 22.3037 12.9931 22.2019 12.9097C22.131 12.8635 22.0728 12.8002 22.0328 12.7256C21.9928 12.651 21.9723 12.5676 21.9732 12.4829C21.9732 11.1412 22.165 9.83386 22.6951 8.59173C23.0284 7.81324 23.4686 7.10362 24.1512 6.57602C24.4368 6.33096 24.794 6.18472 25.1695 6.15911C25.3176 6.15463 25.4647 6.1858 25.5982 6.25001C25.7318 6.31422 25.8479 6.40958 25.9369 6.52806C26.1396 6.77482 26.2702 7.07271 26.3145 7.38895C26.3208 7.41828 26.3295 7.44706 26.3403 7.47503L26.3895 7.48856C26.4296 7.41123 26.4578 7.32831 26.4731 7.2426C26.4805 6.57725 26.4731 5.91314 26.4731 5.24903V5.06702H27.1127V5.23919C27.1127 5.90945 27.1127 6.57848 27.1127 7.24874C27.1271 7.3347 27.1553 7.41776 27.1963 7.49471L27.2516 7.47995C27.2615 7.43199 27.2738 7.3828 27.2799 7.3336C27.3372 6.97695 27.51 6.64899 27.7718 6.40016C28.0461 6.12099 28.3929 6.11484 28.7434 6.21814C29.2747 6.37433 29.6682 6.72975 30.0138 7.14298C30.6361 7.88088 31.0112 8.75406 31.2621 9.68013C31.5024 10.5905 31.6195 11.5291 31.6102 12.4706C31.6127 12.5492 31.5971 12.6272 31.5644 12.6987C31.5318 12.7702 31.483 12.8331 31.422 12.8826Z" fill="#111920"/>
<path id="Vector_13" d="M41.397 4.24304H47.1317V28.1129H41.397V4.24304Z" fill="white"/>
<path id="Vector_14" d="M65.5029 23.5109V28.1129H50.0845V24.095L58.1547 14.6167H50.4313V10.0159H65.1893V14.2047L57.2556 23.5109H65.5029Z" fill="white"/>
<path id="Vector_15" d="M82.7417 23.5109V28.1129H67.3232V24.095L75.3971 14.6167H67.6664V10.0159H82.433V14.2047L74.4993 23.5109H82.7417Z" fill="white"/>
<path id="Vector_16" d="M103.242 10.0159L96.821 28.1129L94.6578 34.2621H89.0263L91.395 28.1129H89.4728L83.7036 10.0159H89.6068L93.1733 23.6142L97.3708 10.0159H103.242Z" fill="white"/>
<path id="Vector_17" d="M115.882 21.8629H106.166L103.966 28.1129H100.362L108.808 4.24304H113.203L121.689 28.1092H118.079L115.882 21.8629ZM114.818 18.8781L111.04 8.09243L107.227 18.8756L114.818 18.8781Z" fill="white"/>
<path id="Vector_18" d="M123.299 4.35007C123.299 2.8386 124.466 1.74036 125.943 1.74036C127.42 1.74036 128.587 2.8386 128.587 4.35007C128.587 5.86154 127.419 6.89091 125.943 6.89091C124.467 6.89091 123.299 5.86031 123.299 4.35007ZM124.123 10.0159H127.763V28.113H124.123V10.0159Z" fill="white"/>
</g>
<defs>
<linearGradient id="paint0_linear_122_1704" x1="0.888369" y1="19.0023" x2="17.3948" y2="35.2753" gradientUnits="userSpaceOnUse">
<stop stop-color="#0CC8E8"/>
<stop offset="1" stop-color="#2DEEAA"/>
</linearGradient>
<linearGradient id="paint1_linear_122_1704" x1="18.7751" y1="19.0023" x2="35.2815" y2="35.2741" gradientUnits="userSpaceOnUse">
<stop stop-color="#0CC8E8"/>
<stop offset="1" stop-color="#2DEEAA"/>
</linearGradient>
<linearGradient id="paint2_linear_122_1704" x1="0.888369" y1="1.17832" x2="17.3948" y2="17.4514" gradientUnits="userSpaceOnUse">
<stop stop-color="#0CC8E8"/>
<stop offset="1" stop-color="#2DEEAA"/>
</linearGradient>
<linearGradient id="paint3_linear_122_1704" x1="18.7751" y1="1.17832" x2="35.2814" y2="17.4502" gradientUnits="userSpaceOnUse">
<stop stop-color="#0CC8E8"/>
<stop offset="1" stop-color="#2DEEAA"/>
</linearGradient>
<clipPath id="clip0_122_1704">
<rect width="128.026" height="34.6469" fill="white" transform="translate(0.5 0.676514)"/>
</clipPath>
</defs>
</svg>
